<svg xmlns="http://www.w3.org/2000/svg" width="16" height="16" version="1.1">
 <path style="fill:#666666" d="M 3 0 C 1.338 0 0 1.338 0 3 L 0 13 C 0 14.662 1.338 16 3 16 L 13 16 C 14.662 16 16 14.662 16 13 L 16 3 C 16 1.338 14.662 0 13 0 L 3 0 z M 3 1 L 13 1 C 14.125297 1 15 1.8747028 15 3 L 15 11 L 1 11 L 1 3 C 1 1.8747028 1.8747028 1 3 1 z M 2.75 12 L 4.25 12 C 4.6655 12 5 12.3345 5 12.75 L 5 14.25 C 5 14.6655 4.6655 15 4.25 15 L 2.75 15 C 2.3345 15 2 14.6655 2 14.25 L 2 12.75 C 2 12.3345 2.3345 12 2.75 12 z M 6.75 12 L 8.25 12 C 8.6655 12 9 12.3345 9 12.75 L 9 14.25 C 9 14.6655 8.6655 15 8.25 15 L 6.75 15 C 6.3345 15 6 14.6655 6 14.25 L 6 12.75 C 6 12.3345 6.3345 12 6.75 12 z M 12 12 L 13 12 L 13 13 L 14 13 L 14 14 L 13 14 L 13 15 L 12 15 L 12 14 L 11 14 L 11 13 L 12 13 L 12 12 z"/>
</svg>
