<svg xmlns="http://www.w3.org/2000/svg" id="svg4" width="16" height="16.004" version="1.1">
 <path style="fill:#666666" d="M 3 0.001953125 C 1.338 0.001953125 0 1.3399531 0 3.0019531 L 0 13.001953 C 0 14.663953 1.338 16.001953 3 16.001953 L 13 16.001953 C 14.662 16.001953 16 14.663953 16 13.001953 L 16 3.0019531 C 16 1.3399531 14.662 0.001953125 13 0.001953125 L 3 0.001953125 z M 3 1.0019531 L 13 1.0019531 C 14.125297 1.0019531 15 1.8766559 15 3.0019531 L 15 13.001953 C 15 14.12725 14.125297 15.001953 13 15.001953 L 3 15.001953 C 1.8747028 15.001953 1 14.12725 1 13.001953 L 1 3.0019531 C 1 1.8766559 1.8747028 1.0019531 3 1.0019531 z"/>
</svg>
